<?xml version="1.0" encoding="UTF-8"?>
<svg width="48px" height="48px" viewBox="0 0 48 48" version="1.1" xmlns="http://www.w3.org/2000/svg" xmlns:xlink="http://www.w3.org/1999/xlink">
    <title>资源 1</title>
    <g id="页面-1" stroke="none" stroke-width="1" fill="none" fill-rule="evenodd">
        <g id="资源-1" fill-rule="nonzero">
            <circle id="椭圆形" fill="#2EA0A6" cx="23.9361576" cy="23.9361576" r="23.9361576"></circle>
            <path d="M10.6403941,33.6591133 L10.6403941,33.6591133 C9.95741102,33.6591133 9.40374384,33.1054461 9.40374384,32.4224631 L9.40374384,16.8165517 C9.40491999,16.368507 9.64699014,15.9557232 10.0374384,15.7359606 L16.5800985,12.0827586 C16.9661566,11.8677657 17.4375862,11.8750635 17.8168046,12.1019031 C18.1960229,12.3287427 18.4254177,12.7406617 18.418578,13.1824943 C18.4117383,13.6243268 18.1697033,14.028948 17.7836453,14.2439409 L11.8723153,17.5400985 L11.8723153,32.4224631 C11.8723203,33.1036036 11.3215296,33.6565086 10.6403941,33.6591133 Z" id="路径" fill="#FFFFFF"></path>
            <path d="M25.4329064,19.3726108 C25.2090177,19.3724853 24.9892981,19.312042 24.7968473,19.1976355 L16.6817734,14.3385222 C16.0941207,13.9878894 15.901978,13.2272587 16.2526108,12.6396059 C16.6032436,12.0519532 17.3638744,11.8598105 17.9515271,12.2104433 L26.0689655,17.0695567 C26.5468636,17.3550103 26.7751393,17.9245824 26.6266651,18.4610764 C26.4781909,18.9975703 25.9895658,19.3687408 25.4329064,19.3678818 L25.4329064,19.3726108 Z" id="路径" fill="#FFFFFF"></path>
            <path d="M22.3117241,40.1568473 C22.0968221,40.1570232 21.8856416,40.1007627 21.6993103,39.9936946 L15.2796059,36.333399 C14.8957469,36.112343 14.6594378,35.7028609 14.6600971,35.2599015 L14.6600971,21.4297537 C14.6600971,20.9837344 14.9001364,20.5722339 15.2884697,20.3528476 C15.6768031,20.1334613 16.1531852,20.1401848 16.5351724,20.3704433 L23.4514286,24.5367488 C23.8231167,24.7613456 24.0500854,25.1641477 24.0496558,25.5984236 L24.0496558,32.2451232 C24.0470552,32.926643 23.4945285,33.4781132 22.8130049,33.4794089 L22.8130049,33.4794089 C22.1296395,33.4781047 21.5763534,32.9237607 21.5763547,32.2403941 L21.5763547,26.2935961 L17.12867,23.6193103 L17.12867,34.5410837 L22.9265025,37.8514286 C23.4119067,38.1311697 23.6491996,38.7018289 23.5052594,39.2432655 C23.3613192,39.7847021 22.8719645,40.162183 22.3117241,40.1639409 L22.3117241,40.1568473 Z" id="路径" fill="#FFFFFF"></path>
            <path d="M29.8829557,37.9767643 C29.322908,37.9774124 28.8323255,37.6016159 28.6871254,37.0607179 C28.5419253,36.5198198 28.7783585,35.9488614 29.2634483,35.6689655 L36.3050246,31.6161576 L36.2742857,17.5306404 L23.6027586,10.0185222 C23.0188918,9.66881398 22.8273363,8.91305438 23.1741397,8.32745759 C23.5209431,7.74186079 24.2757418,7.54655323 24.8630542,7.89044335 L38.142266,15.7596059 C38.5170512,15.983222 38.7468809,16.3872194 38.7475862,16.8236453 L38.7806897,32.3255172 C38.7797575,32.7692863 38.542891,33.1790742 38.1588177,33.4013793 L30.5024631,37.8135961 C30.3139192,37.9215569 30.1002185,37.9778369 29.8829557,37.9767643 Z" id="路径" fill="#FFFFFF"></path>
            <path d="M30.3298522,32.0204949 C30.0016797,32.0211219 29.6867671,31.8910344 29.4547136,31.658981 C29.2226602,31.4269275 29.0925727,31.1120149 29.0931997,30.7838424 L29.0931997,23.9810837 C29.0931997,23.2981007 29.6468691,22.7444335 30.3298522,22.7444335 C31.0128353,22.7444335 31.5665025,23.2981007 31.5665025,23.9810837 L31.5665025,30.7838424 C31.5665025,31.1118224 31.4362129,31.4263692 31.204296,31.6582861 C30.9723791,31.890203 30.6578323,32.0204949 30.3298522,32.0204949 Z" id="路径" fill="#FFFFFF"></path>
            <path d="M12.7803008,17.6063054 C12.7803008,18.4796807 12.2540598,19.2670132 11.4470745,19.6010182 C10.6400893,19.9350231 9.71135809,19.74989 9.09412696,19.1319821 C8.47689583,18.5140742 8.29278065,17.5851406 8.62766976,16.7785219 C8.96255888,15.9719032 9.75046756,15.4465311 10.6238424,15.4474864 C11.1963721,15.4468578 11.7455992,15.6741775 12.1502172,16.0792392 C12.5548352,16.4843009 12.7815528,17.0337767 12.7803008,17.6063054 L12.7803008,17.6063054 Z" id="路径" fill="#FFFFFF"></path>
            <path d="M11.4159639,17.6063054 C11.4169175,17.9536791 11.2084012,18.2673805 10.887744,18.4009783 C10.5670868,18.5345761 10.1975187,18.4617262 9.95154893,18.216434 C9.70557914,17.9711418 9.63171007,17.6017761 9.76442275,17.2807516 C9.89713543,16.9597271 10.2102605,16.7503448 10.5576355,16.7503448 C11.0307535,16.7503448 11.4146572,17.1331892 11.4159639,17.6063054 Z" id="路径" fill="#2EA0A6"></path>
            <path d="M19.3064052,13.5416749 C19.3073605,14.4150497 18.7819884,15.2029584 17.9753697,15.5378475 C17.168751,15.8727366 16.2398174,15.6886214 15.6219095,15.0713903 C15.0040016,14.4541592 14.8188685,13.5254279 15.1528735,12.7184427 C15.4868784,11.9114575 16.2742109,11.3852217 17.1475862,11.3852217 C18.3389455,11.3852217 19.3050991,12.3503163 19.3064052,13.5416749 L19.3064052,13.5416749 Z" id="路径" fill="#FFFFFF"></path>
            <path d="M17.9869984,13.5416749 C17.987952,13.8890486 17.7794357,14.20275 17.4587785,14.3363478 C17.1381213,14.4699455 16.7685532,14.3970957 16.5225834,14.1518035 C16.2766136,13.9065113 16.2027445,13.5371456 16.3354572,13.2161211 C16.4681699,12.8950966 16.781295,12.6857143 17.12867,12.6857143 C17.6012524,12.6870055 17.9844002,13.0690978 17.9869984,13.5416749 L17.9869984,13.5416749 Z" id="路径" fill="#2EA0A6"></path>
            <path d="M18.3582279,21.7016749 C18.3591829,22.5752648 17.8335547,23.3633229 17.0266455,23.6980731 C16.2197363,24.0328234 15.2906172,23.8482745 14.6728955,23.2305528 C14.0551738,22.6128311 13.8706248,21.683712 14.2053751,20.8768028 C14.5401254,20.0698936 15.3281835,19.5442654 16.2017734,19.5452204 C17.3927496,19.5452204 18.3582279,20.5106987 18.3582279,21.7016749 L18.3582279,21.7016749 Z" id="路径" fill="#FFFFFF"></path>
            <path d="M17.0411855,21.7016749 C17.0421392,22.0490486 16.8336228,22.36275 16.5129657,22.4963478 C16.1923085,22.6299455 15.8227404,22.5570957 15.5767706,22.3118035 C15.3308008,22.0665113 15.2569317,21.6971456 15.3896444,21.3761211 C15.5223571,21.0550966 15.8354821,20.8457143 16.1828571,20.8457143 C16.6559751,20.8457143 17.0398789,21.2285587 17.0411855,21.7016749 Z" id="路径" fill="#2EA0A6"></path>
            <path d="M24.7542909,25.8916256 C24.7561993,26.7654288 24.2311793,27.554212 23.4243471,27.8897078 C22.617515,28.2252037 21.6880085,28.0412398 21.0697961,27.4237052 C20.4515836,26.8061706 20.2666001,25.8768665 20.6012106,25.0696668 C20.9358211,24.2624671 21.7240278,23.736582 22.5978325,23.7375356 C23.7878859,23.7375356 24.7529808,24.7015729 24.7542909,25.8916256 L24.7542909,25.8916256 Z" id="路径" fill="#FFFFFF"></path>
            <path d="M23.5602004,25.8916256 C23.5615011,26.3656628 23.1782758,26.7510035 22.7042386,26.7523121 C22.2302014,26.753614 21.8448598,26.3703897 21.84355,25.8963525 C21.8422468,25.4223153 22.2254702,25.0369727 22.6995074,25.0356519 C22.9273405,25.0344063 23.1462743,25.1240316 23.3078223,25.2846919 C23.4693703,25.4453523 23.5602004,25.663789 23.5602004,25.8916256 L23.5602004,25.8916256 Z" id="路径" fill="#2EA0A6"></path>
            <path d="M32.3562562,22.0658128 C32.3562562,23.2580949 31.3897205,24.2246305 30.1974384,24.2246305 C29.0051563,24.2246305 28.0386207,23.2580949 28.0386207,22.0658128 C28.0386207,20.8735307 29.0051563,19.9069951 30.1974384,19.9069951 C31.3897205,19.9069951 32.3562562,20.8735307 32.3562562,22.0658128 Z" id="路径" fill="#FFFFFF"></path>
            <path d="M31.0368506,22.0658128 C31.0368506,22.4131878 30.827465,22.7263128 30.5064405,22.8590255 C30.185416,22.9917382 29.8160503,22.9178691 29.5707581,22.6718993 C29.3254659,22.4259296 29.252616,22.0563615 29.3862138,21.7357043 C29.5198116,21.4150471 29.833513,21.2065307 30.1808867,21.2074844 C30.4083118,21.2074844 30.6263879,21.2979926 30.7869798,21.4590281 C30.9475717,21.6200637 31.0374755,21.8383885 31.0368506,22.0658128 Z" id="路径" fill="#2EA0A6"></path>
            <path d="M39.4096565,17.4431527 C39.4106118,18.3165275 38.8852397,19.1044362 38.0786209,19.4393253 C37.2720022,19.7742144 36.3430687,19.5900992 35.7251607,18.9728681 C35.1072528,18.355637 34.9221198,17.4269058 35.2561247,16.6199205 C35.5901296,15.8129353 36.3774621,15.2866982 37.2508374,15.2866982 C37.823174,15.2860719 38.3722839,15.512992 38.7772089,15.9174734 C39.1821339,16.3219549 39.4096565,16.8708158 39.4096565,17.4431527 Z" id="路径" fill="#FFFFFF"></path>
            <path d="M38.0902496,17.4431527 C38.0912025,17.7907413 37.8824296,18.1045919 37.5614817,18.2380504 C37.2405338,18.3715089 36.8707801,18.2982247 36.6249969,18.0524415 C36.3792137,17.8066583 36.3059295,17.4369047 36.439388,17.1159567 C36.5728465,16.7950088 36.8866971,16.5862359 37.2342857,16.5871888 C37.7064806,16.5884911 38.0889473,16.9709579 38.0902496,17.4431527 L38.0902496,17.4431527 Z" id="路径" fill="#2EA0A6"></path>
            <path d="M39.2819757,32.124532 C39.2838841,32.9981201 38.7591201,33.7867536 37.9525786,34.1223881 C37.146037,34.4580226 36.2167164,34.2744925 35.598318,33.6574486 C34.9799195,33.0404048 34.7943518,32.1114889 35.1282168,31.3042133 C35.4620817,30.4969377 36.2495625,29.9704421 37.1231527,29.9704421 C37.6950798,29.9698159 38.2438314,30.1964115 38.6486883,30.6003815 C39.0535453,31.0043516 39.2813437,31.552605 39.2819757,32.124532 Z" id="路径" fill="#FFFFFF"></path>
            <path d="M37.9649392,32.124532 C37.9668412,32.4721161 37.7589356,32.786541 37.4383578,32.9208848 C37.1177801,33.0552285 36.7478262,32.9829657 36.5013654,32.7378629 C36.2549046,32.49276 36.180599,32.123211 36.3131696,31.8018959 C36.4457401,31.4805808 36.7590117,31.270936 37.106601,31.270936 C37.5788002,31.270936 37.9623245,31.65234 37.9649392,32.124532 Z" id="路径" fill="#2EA0A6"></path>
            <path d="M18.2967501,34.8271921 C18.2977054,35.7005669 17.7723332,36.4884756 16.9657145,36.8233647 C16.1590958,37.1582538 15.2301623,36.9741387 14.6122543,36.3569075 C13.9943464,35.7396764 13.8092133,34.8109452 14.1432183,34.0039599 C14.4772232,33.1969747 15.2645557,32.6707389 16.137931,32.6707389 C17.3292903,32.6707389 18.2954439,33.6358335 18.2967501,34.8271921 L18.2967501,34.8271921 Z" id="路径" fill="#FFFFFF"></path>
            <path d="M16.9773432,34.8271921 C16.9773432,35.301232 16.5930547,35.6855172 16.1190148,35.6855172 C15.6449749,35.6855172 15.2606897,35.301232 15.2606897,34.8271921 C15.2606897,34.3531522 15.6449749,33.9688637 16.1190148,33.9688637 C16.3468494,33.9682367 16.5655341,34.0584648 16.7266381,34.2195688 C16.8877421,34.3806728 16.9779702,34.5993575 16.9773432,34.8271921 L16.9773432,34.8271921 Z" id="路径" fill="#2EA0A6"></path>
        </g>
    </g>
</svg>