<?xml version="1.0" encoding="UTF-8"?>
<svg width="30px" height="30px" viewBox="0 0 30 30" version="1.1" xmlns="http://www.w3.org/2000/svg" xmlns:xlink="http://www.w3.org/1999/xlink">
    <title>avatar</title>
    <g id="é¡µé¢-1" stroke="none" stroke-width="1" fill="none" fill-rule="evenodd">
        <g id="ç¼–ç»„" transform="translate(-1390.000000, -15.000000)" fill="#2DA2A6">
            <path d="M1405,15 C1396.72,15 1390,21.72 1390,30 C1390,38.28 1396.72,45 1405,45 C1413.28,45 1420,38.28 1420,30 C1420,21.72 1413.28,15 1405,15 L1405,15 Z M1405,19.5 C1407.49,19.5 1409.5,21.51 1409.5,24 C1409.5,26.49 1407.49,28.5 1405,28.5 C1402.51,28.5 1400.5,26.49 1400.5,24 C1400.5,21.51 1402.51,19.5 1405,19.5 L1405,19.5 Z M1405,40.8 C1401.25,40.8 1397.935,38.88 1396,35.97 C1396.045,32.985 1402,31.35 1405,31.35 C1407.985,31.35 1413.955,32.985 1414,35.97 C1412.065,38.88 1408.75,40.8 1405,40.8 L1405,40.8 Z" id="avatar"></path>
        </g>
    </g>
</svg>